<svg width="30" height="31" viewBox="0 0 30 31" fill="none" xmlns="http://www.w3.org/2000/svg">
<path d="M30 15.2009C30 6.91639 23.2863 0.204102 15 0.204102C6.71371 0.204102 0 6.91639 0 15.2009C0 23.4855 6.71371 30.1978 15 30.1978C23.2863 30.1978 30 23.4855 30 15.2009ZM2.90323 15.2009C2.90323 8.51888 8.31653 3.10671 15 3.10671C21.6835 3.10671 27.0968 8.51888 27.0968 15.2009C27.0968 21.883 21.6835 27.2951 15 27.2951C8.31653 27.2951 2.90323 21.883 2.90323 15.2009ZM7.25806 16.4103V13.9915C7.25806 13.5924 7.58468 13.2659 7.98387 13.2659L15 13.2659V9.21429C15 8.56725 15.7802 8.24675 16.2399 8.70029L22.2278 14.6869C22.5121 14.9711 22.5121 15.4307 22.2278 15.7149L16.2399 21.7016C15.7802 22.1611 15 21.8346 15 21.1876V17.136H7.98387C7.58468 17.136 7.25806 16.8095 7.25806 16.4103Z" fill="white"/>
</svg>
