<svg width="30" height="31" viewBox="0 0 30 31" fill="none" xmlns="http://www.w3.org/2000/svg">
<path d="M30 15.5031C30 7.21858 23.2863 0.506348 15 0.506348C6.71371 0.506348 0 7.21858 0 15.5031C0 23.7875 6.71371 30.4998 15 30.4998C23.2863 30.4998 30 23.7875 30 15.5031ZM2.90323 15.5031C2.90323 8.82105 8.31653 3.40894 15 3.40894C21.6835 3.40894 27.0968 8.82105 27.0968 15.5031C27.0968 22.1851 21.6835 27.5972 15 27.5972C8.31653 27.5972 2.90323 22.1851 2.90323 15.5031ZM7.25806 16.7125V14.2936C7.25806 13.8945 7.58468 13.568 7.98387 13.568L15 13.568V9.51646C15 8.86943 15.7802 8.54893 16.2399 9.00246L22.2278 14.9891C22.5121 15.2733 22.5121 15.7328 22.2278 16.0171L16.2399 22.0036C15.7802 22.4632 15 22.1367 15 21.4896V17.4381H7.98387C7.58468 17.4381 7.25806 17.1116 7.25806 16.7125Z" fill="black"/>
</svg>
